<svg xmlns="http://www.w3.org/2000/svg" xmlns:xlink="http://www.w3.org/1999/xlink" xmlns:lucid="lucid" width="1482" height="990.77"><g transform="translate(-239.5 301.5)" lucid:page-tab-id="0_0"><path d="M700-120h840v440H700z" stroke="#8c4fff" stroke-width="3" fill="#fff" fill-opacity="0"/><path d="M700-120h56v56h-56v-56z" stroke="#fff" stroke-opacity="0" fill="#8c4fff"/><path d="M743.37-90.55l-4.12-1.77v14.68c3.57-.48 4.12-4.16 4.12-4.3v-8.6zm-5.53 12.95v-14.72l-4.23 1.77v8.68c0 .07.63 3.86 4.24 4.27zm.43-16.45c.2-.07.4-.07.55.04l5.53 2.34c.27.1.43.37.43.63v9.16c-.24 2.02-1.88 5.7-6.35 5.7-4.3 0-5.96-3.68-6.24-5.6v-9.26c0-.26.2-.52.43-.63l5.64-2.4zm7.92.92l-7.66-3.38-7.76 3.26v9.97c0 .08-.04 4 2.36 6.48 1.25 1.33 3.05 2 5.3 2 2.26 0 4.02-.67 5.36-2 2.43-2.46 2.4-6.43 2.4-6.47v-9.86zm-1.42 17.3c-1.57 1.6-3.7 2.42-6.35 2.42-2.63 0-4.75-.82-6.3-2.44-2.84-2.87-2.72-7.28-2.72-7.47v-10.42c0-.3.17-.55.44-.62l8.43-3.57c.2-.08.4-.08.55 0l8.35 3.67c.27.1.43.37.43.62v10.33c0 .2.04 4.56-2.82 7.43zm-29.4-10.23h11.2v1.4h-11.2c-3.92 0-6.75-2.84-6.98-7.03v-.5c0-3.54 1.84-5.93 5.33-7 0-.3-.04-.66-.04-.88 0-4.1 2.23-7.66 5.64-9.05 4.62-1.88 9.84-1.25 12.74 1.54 1.05 1.04 1.88 2.18 2.47 3.5.86-.62 1.96-.9 3.3-.84 2.5.1 4.42 2.4 4.8 5.6 2.1.18 3.5 1.25 4.2 3.23l-1.3.47C744.98-97.25 743.9-98 742-98c-.36.02-.67-.24-.67-.65-.2-3.23-2-4.82-3.57-4.9-1.33-.06-2.3.3-2.9 1.1-.16.2-.4.3-.67.27-.24-.04-.48-.22-.56-.44-.58-1.55-1.4-2.83-2.54-3.94-2.5-2.43-7.14-2.94-11.25-1.25-2.87 1.17-4.75 4.2-4.75 7.72 0 .37.04.95.08 1.32.04.37-.15.7-.5.78-3.22.8-4.87 2.72-4.87 5.77v.4c.2 3.5 2.4 5.74 5.58 5.74z" stroke="#fff" stroke-opacity="0" fill="#fff"/><use xlink:href="#a" transform="matrix(1,0,0,1,771,-100) translate(0 21.52777777777778)"/><use xlink:href="#b" transform="matrix(1,0,0,1,771,-100) translate(73.94748263888889 21.52777777777778)"/><use xlink:href="#c" transform="matrix(1,0,0,1,771,-100) translate(152.76692708333331 21.52777777777778)"/><use xlink:href="#d" transform="matrix(1,0,0,1,771,-100) translate(217.1657986111111 21.52777777777778)"/><path d="M740-40h760v320H740z" stroke="#7aa116" stroke-width="3" fill="#fff" fill-opacity="0"/><path d="M740-40h56v56h-56v-56z" stroke="#fff" stroke-opacity="0" fill="#7aa116"/><path d="M783.38-17.82c-.15-.17-.34-.25-.56-.25h-5.15v-5.58c-.03-2.54-.96-4.7-2.84-6.4-1.9-1.84-4.15-2.75-6.77-2.75-2.65 0-4.9.83-6.8 2.62-1.9 1.7-2.87 3.87-2.9 6.4v5.67h-5.15c-.24 0-.43.07-.58.23-.16.17-.22.34-.22.6V8c0 .43.34.8.8.8h29.6c.46 0 .8-.37.8-.8v-25.28c0-.2-.06-.38-.22-.54zm-23.46-5.9c.03-2.13.8-3.88 2.37-5.3 1.6-1.5 3.52-2.2 5.73-2.2 2.22 0 4.12.75 5.7 2.25 1.54 1.4 2.32 3.2 2.32 5.32v5.58H759.9zm22.1 30.94h-28.03v-23.7h28z" stroke="#fff" stroke-opacity="0" fill="#fff"/><path d="M767.2-2.7v6.25h1.6v-6.23c2.13-.4 3.62-2.2 3.63-4.35 0-2.43-1.97-4.4-4.4-4.43-2.2-.03-4.06 1.5-4.44 3.68-.42 2.4 1.2 4.68 3.6 5.1zm.82-7.15c.78 0 1.44.27 2 .82.54.56.82 1.22.8 2 .03 1.55-1.2 2.8-2.74 2.82h-.06c-1.56.1-2.92-1.06-3.04-2.62-.12-1.56 1.05-2.93 2.6-3.03.16-.02.28-.02.44 0z" stroke="#fff" stroke-opacity="0" fill="#fff"/><use xlink:href="#e" transform="matrix(1,0,0,1,811,-20) translate(0 21.52777777777778)"/><path d="M520-300h1200v700H520z" stroke="#242f3e" stroke-width="3" fill="#fff" fill-opacity="0"/><path d="M520-300h56v56h-56v-56z" stroke="#fff" stroke-opacity="0" fill="#242f3e"/><path d="M538.22-274.13c-.04.48.04.87.17 1.34.1.4.28.7.48 1.07.04.1.08.22.08.34 0 .2-.12.36-.28.46l-.95.62c-.12.08-.25.13-.37.13-.16 0-.33-.06-.45-.2-.2-.22-.36-.43-.52-.7-.17-.25-.3-.53-.46-.86-1.1 1.37-2.62 2.1-4.4 2.06-1.14.06-2.12-.3-2.95-1.08-.78-.8-1.15-1.76-1.1-2.85-.05-1.23.4-2.28 1.35-3.08 1.07-.86 2.3-1.23 3.65-1.16.58 0 1.03.02 1.6.1.58.1 1.1.2 1.73.33v-1.1c.08-.88-.16-1.67-.7-2.37-.74-.56-1.56-.8-2.46-.7-.53 0-1.03.07-1.6.2-.58.13-1.03.3-1.6.5l-.5.2h-.24c-.2 0-.33-.16-.33-.45v-.75c0-.18.04-.33.12-.5.12-.16.24-.26.4-.33.66-.3 1.2-.5 1.9-.67.77-.2 1.47-.3 2.3-.28 1.47-.13 2.78.26 3.9 1.2.94 1.05 1.35 2.28 1.22 3.67zm-6.07 2.28c.57 0 1.06-.1 1.6-.28.57-.2 1.02-.5 1.43-.96.25-.27.42-.56.5-.93.12-.45.16-.84.16-1.3v-.67c-.53-.1-.94-.17-1.44-.2H533c-.8-.08-1.55.12-2.2.58-.54.45-.8 1.04-.75 1.73-.04.6.13 1.16.54 1.6.44.38.97.52 1.55.45zm12 1.6c-.22 0-.42-.03-.6-.15-.15-.17-.23-.36-.32-.6l-3.5-11.5-.1-.62c0-.24.1-.37.36-.37h1.47c.2 0 .37.04.57.15.17.18.25.37.3.6l2.5 9.96 2.38-9.93c0-.24.08-.44.28-.6.17-.12.37-.16.58-.15h1.2c.24 0 .4.03.6.15.17.18.25.36.3.6l2.33 9.94 2.56-10c.04-.2.16-.4.33-.58.15-.1.36-.17.56-.14h1.4c.16 0 .33.12.37.3v.31s0 .2-.12.35l-3.6 11.53c-.05.22-.13.42-.3.6-.2.1-.37.14-.57.13h-1.27c-.25.04-.46-.02-.62-.15-.16-.17-.25-.36-.3-.6l-2.3-9.6-2.28 9.6c-.05.24-.13.44-.3.6-.2.13-.4.2-.6.16zm19.2.38c-.82 0-1.5-.07-2.3-.25-.65-.13-1.14-.3-1.72-.6-.2-.1-.37-.23-.45-.4-.08-.16-.12-.3-.12-.45v-.75c0-.3.12-.46.32-.46h.3l.36.15c.58.24 1.03.4 1.6.5.62.15 1.15.2 1.8.2.8.06 1.5-.1 2.2-.48.48-.32.77-.83.73-1.42.04-.4-.13-.76-.38-1.04-.46-.4-.95-.65-1.52-.8l-2.18-.67c-.95-.26-1.73-.74-2.38-1.5-.5-.66-.74-1.36-.74-2.2 0-.58.12-1.07.4-1.6.3-.5.63-.88 1.08-1.2.5-.4.98-.62 1.6-.8.66-.17 1.2-.25 1.9-.24.32-.03.6-.03.97 0l1 .16.8.22.67.26c.16.1.28.22.45.38.08.15.12.3.12.5v.7c0 .3-.12.47-.37.47-.2-.03-.37-.08-.57-.18-.95-.42-1.8-.6-2.88-.58-.7-.04-1.3.08-1.97.4-.5.3-.74.8-.7 1.36 0 .4.13.76.46 1.05.5.4.98.65 1.6.82l2.1.67c.94.24 1.68.7 2.3 1.44.48.64.7 1.3.7 2.1 0 .63-.13 1.17-.38 1.73-.3.55-.62.95-1.1 1.32-.5.4-1 .66-1.6.84-.75.23-1.4.33-2.15.34zM566.1-262.5c-5.6 3.8-11.36 5.56-18.15 5.54-8.54.05-15.82-2.74-22.16-8.45-.5-.42 0-1 .48-.68 7.07 4.05 14.02 5.9 22.2 5.9 6.1-.04 11.3-1.1 16.93-3.47.83-.35 1.52.54.7 1.13z" stroke="#fff" stroke-opacity="0" fill="#fff"/><path d="M568.16-264.8c-.64-.8-4.16-.38-5.75-.2-.46 0-.53-.36-.1-.67 2.8-1.97 7.42-1.4 8-.73.6.67-.14 5.28-2.78 7.48-.4.35-.78.15-.6-.28.54-1.52 1.86-4.83 1.24-5.6z" stroke="#fff" stroke-opacity="0" fill="#fff"/><use xlink:href="#f" transform="matrix(1,0,0,1,591,-280) translate(0 21.52777777777778)"/><use xlink:href="#g" transform="matrix(1,0,0,1,591,-280) translate(91.92708333333331 21.52777777777778)"/><path d="M580-220h1060v580H580z" fill="#fff" fill-opacity="0"/><path d="M598.07-220h12.04m12.06 0h12.05m12.05 0h12.04m12.04 0h12.05m12.03 0h12.05m12.04 0h12.05m12.04 0h12.06m12.05 0h12.05m12.04 0h12.04m12.05 0h12.03m12.05 0h12.04m12.05 0h12.04m12.06 0h12.05m12.05 0h12.04m12.04 0h12.05m12.03 0h12.05m12.04 0h12.05m12.04 0h12.06m12.04 0h12.05m12.05 0h12.04m12.05 0h12.03m12.05 0h12.04m12.05 0h12.04m12.06 0h12.04m12.05 0h12.05m12.04 0h12.05m12.03 0h12.05m12.04 0h12.05m12.04 0h12.06m12.04 0h12.05m12.05 0h12.04m12.05 0h12.03m12.05 0h12.04m12.05 0h12.04m12.06 0h12.04m12.05 0h12.05m12.04 0h12.05m12.03 0h12.05m12.04 0h12.05m12.04 0h12.06m12.04 0h12.05m12.05 0h12.04m12.05 0h12.03m12.05 0h6.02v6.04m0 12.1v12.07m0 12.1v12.07m0 12.1v12.07m0 12.1v12.07m0 12.1v12.08m0 12.08v12.08m0 12.08v12.1m0 12.07v12.08m0 12.08V3.54m0 12.1V27.7m0 12.1v12.08m0 12.08v12.08m0 12.08v12.1m0 12.07v12.08m0 12.08v12.08m0 12.1v12.07m0 12.1v12.07m0 12.1v12.07m0 12.1v12.07m0 12.1v12.07m0 12.1v12.07m0 12.08v12.1m0 12.07v12.07m0 12.1V360h-6.02m-12.05 0h-12.04m-12.06 0h-12.04m-12.05 0h-12.05m-12.04 0h-12.05m-12.03 0h-12.05m-12.04 0h-12.05m-12.04 0h-12.06m-12.04 0h-12.05m-12.05 0h-12.04m-12.05 0h-12.03m-12.05 0h-12.04m-12.05 0h-12.04m-12.06 0h-12.04m-12.05 0h-12.05m-12.04 0h-12.05m-12.03 0h-12.05m-12.04 0h-12.05m-12.04 0h-12.06m-12.04 0h-12.05m-12.05 0h-12.04m-12.05 0h-12.03m-12.05 0h-12.04m-12.05 0h-12.04m-12.06 0h-12.04m-12.05 0h-12.05m-12.04 0h-12.05m-12.03 0h-12.05m-12.04 0h-12.05m-12.04 0h-12.06m-12.05 0h-12.05m-12.04 0h-12.04m-12.05 0h-12.03m-12.05 0h-12.04m-12.05 0H814.9m-12.06 0H790.8m-12.05 0H766.7m-12.04 0H742.6m-12.03 0h-12.05m-12.04 0h-12.05m-12.04 0h-12.06m-12.05 0h-12.05m-12.04 0h-12.04m-12.05 0h-12.03m-12.05 0H580v-6.04m0-12.08v-12.1m0-12.07v-12.07m0-12.1v-12.07m0-12.08v-12.1m0-12.07v-12.07m0-12.1v-12.07m0-12.1V184.8m0-12.1v-12.07m0-12.1v-12.07m0-12.1V112.3m0-12.1V88.13m0-12.08V63.96m0-12.1V39.8m0-12.1V15.64m0-12.1V-8.53m0-12.1V-32.7m0-12.1v-12.08m0-12.08v-12.08m0-12.08v-12.1m0-12.07v-12.08m0-12.08v-12.08m0-12.1v-12.07m0-12.1v-12.07m0-12.1V-220h6.02" stroke="#00a4a6" stroke-width="3" fill="none"/><path d="M580-220h56v56h-56v-56z" stroke="#fff" stroke-opacity="0" fill="#00a4a6"/><path d="M623.84-190.64l-5.96-7.36 5.96-7.4h-26.17v-2.08c.98-.32 1.62-1.16 1.62-2.2-.1-1.15-1.03-2.02-2.17-2.14-1.3-.08-2.44.87-2.53 2.15 0 1.03.63 1.87 1.58 2.2v33.88h-4.02v1.6h9.44v-1.6h-3.93v-17.04zm-26.96-19.75c.4-.03.76.33.76.73 0 .44-.32.75-.73.75-.4.04-.75-.3-.75-.7v-.05c0-.4.32-.72.73-.72zm23.6 6.62l-4.65 5.78 4.65 5.73h-22.8v-11.5z" stroke="#fff" stroke-opacity="0" fill="#fff"/><use xlink:href="#h" transform="matrix(1,0,0,1,651,-200) translate(0 21.52777777777778)"/><use xlink:href="#i" transform="matrix(1,0,0,1,651,-200) translate(78.64583333333333 21.52777777777778)"/><path d="M840 60h120v120H840V60z" stroke="#000" stroke-opacity="0" fill="#ed7100"/><path d="M880.5 139.5H918V102H880.5v37.47zM921 102h5.96v2.94H921V111h5.96v3.04H921v4.45h5.96v3H921v5.98h5.96v3.02H921v5.96h5.96v3.03H921v.24c0 1.5-1.26 2.77-2.77 2.77h-.25v5.98h-2.94v-5.97H909v5.98h-3.04v-5.97h-4.45v5.98h-3v-5.97h-5.98v5.98h-3.02v-5.97h-5.96v5.98h-3.03v-5.97h-.24c-1.5 0-2.77-1.25-2.77-2.76v-.25h-4.46v-3.04h4.45v-5.96h-4.46v-3.02h4.45v-5.97h-4.46v-3h4.45v-4.46h-4.46V111h4.45v-6.04h-4.46v-2.94h4.45v-.25c0-1.5 1.25-2.77 2.76-2.77h.25v-5.96h3.04V99h5.96v-5.96h3.02V99h5.97v-5.96h3V99h4.46v-5.96H909V99h6.04v-5.96h2.94V99h.25c1.5 0 2.77 1.26 2.77 2.77v.25zm-19.5 56.8c0 .07-.07.16-.16.16H861.2c-.1 0-.18-.1-.18-.17v-40.14c0-.1.1-.17.17-.17h8.8v-3.04h-8.8c-1.77 0-3.2 1.43-3.2 3.2v40.15c0 1.77 1.43 3.2 3.2 3.2h40.14c1.77 0 3.2-1.43 3.2-3.2v-7.3h-3.03v7.3zM942 81.18v40.14c0 1.77-1.43 3.2-3.2 3.2H930v-3.03h8.8c.1 0 .18-.07.18-.16V81.2c0-.1-.1-.18-.17-.18h-40.14c-.1 0-.17.1-.17.17V90h-3.04v-8.8c0-1.77 1.43-3.2 3.2-3.2h40.15c1.77 0 3.2 1.43 3.2 3.2z" stroke="#000" stroke-opacity="0" fill="#fff"/><use xlink:href="#f" transform="matrix(1,0,0,1,810,189) translate(22.465277777777786 21.52777777777778)"/><use xlink:href="#j" transform="matrix(1,0,0,1,810,189) translate(114.3923611111111 21.52777777777778)"/><path d="M1320 60h120v120h-120V60z" stroke="#000" stroke-opacity="0" fill="#c925d1"/><path d="M1343.12 81.02l13.95 13.95-2.1 2.1-13.95-13.95v11.34H1338V79.5c0-.83.67-1.5 1.5-1.5h14.96v3.02h-11.34zm78.88-1.5v14.94h-3.02V83.12l-13.95 13.95-2.1-2.1 13.95-13.95h-11.34V78h14.95c.83 0 1.5.67 1.5 1.5zm-3.02 66.02h3.02v14.95c0 .83-.67 1.5-1.5 1.5h-14.96v-3.02h11.34l-13.95-13.95 2.1-2.1 13.95 13.95v-11.34zm-.76-26.72c0-4.95-5.7-9.9-15.37-13.18l1-2.86c11 3.78 17.4 9.66 17.4 16.04 0 6.4-6.4 12.27-17.4 15.96l-1-2.77c9.66-3.26 15.37-8.22 15.37-13.18zm-76.36 0c0 4.8 5.38 9.58 14.37 12.77l-1 2.85c-10.43-3.78-16.4-9.4-16.4-15.63 0-6.2 5.97-11.84 16.4-15.62l1 2.77c-9 3.28-14.37 8.07-14.37 12.85zm15.2 26.2L1343.13 159h11.34V162h-14.95c-.83 0-1.5-.67-1.5-1.5v-14.96h3.02v11.34l13.95-13.95 2.1 2.1zM1380 106.9c-10.75 0-16.46-2.78-16.46-3.87 0-1.17 5.7-3.86 16.46-3.86 10.75 0 16.46 2.7 16.46 3.86 0 1.1-5.7 3.87-16.46 3.87zm.08 11.67c-10.33 0-16.54-2.85-16.54-4.37v-7.3c3.7 2.1 10.24 3.02 16.46 3.02 6.22 0 12.77-.92 16.46-3.02v7.3c0 1.52-6.2 4.37-16.38 4.37zm0 11.43c-10.33 0-16.54-2.78-16.54-4.3v-7.38c3.6 2.1 10.08 3.2 16.54 3.2 6.4 0 12.77-1.1 16.38-3.2v7.4c0 1.5-6.2 4.28-16.38 4.28zm-.08 10.24c-10.67 0-16.46-2.85-16.46-4.28v-6.22c3.6 2.2 10.08 3.28 16.54 3.28 6.4 0 12.77-1.1 16.38-3.28v6.22c0 1.43-5.8 4.28-16.46 4.28zm0-44.1c-9.4 0-19.5 2.2-19.5 6.9v32.92c0 4.8 9.84 7.3 19.5 7.3s19.5-2.5 19.5-7.3v-32.93c0-4.7-10.1-6.9-19.5-6.9z" stroke="#000" stroke-opacity="0" fill="#fff"/><use xlink:href="#f" transform="matrix(1,0,0,1,1290,189) translate(21.738281250000014 21.52777777777778)"/><use xlink:href="#k" transform="matrix(1,0,0,1,1290,189) translate(113.66536458333333 21.52777777777778)"/><path d="M848.16 216a6 6 0 0 1 6-6h91.68a6 6 0 0 1 6 6v24.9a6 6 0 0 1-6 6h-91.68a6 6 0 0 1-6-6z" fill="none"/><use xlink:href="#l" transform="matrix(1,0,0,1,853.1634027777777,214.99999999999994) translate(0 21.58376736111111)"/><path d="M245.6 174.6c1.33-27.12 23-48.6 49.4-48.6 8.9 0 17.7 2.4 25.3 7.2 14.2 8.76 23.2 24.36 24.1 41.4h-98.8zm22.45-82.2c0-14.88 12.1-27 26.95-27s26.95 12.12 26.95 27-12.1 26.88-26.95 26.88-26.95-12-26.95-26.88zm55.22 36.12c-4.84-3-10-5.04-15.4-6.36 11.55-5.04 19.58-16.44 19.58-29.76 0-17.88-14.52-32.4-32.45-32.4-17.93 0-32.45 14.52-32.45 32.4 0 13.32 8.03 24.72 19.58 29.76-24.1 6-42.13 28.44-42.13 55.08 0 1.56 1.2 2.76 2.75 2.76h104.5c1.54 0 2.75-1.2 2.75-2.76 0-19.8-10.23-38.52-26.73-48.72z" stroke="#000" stroke-opacity="0" fill="#232f3e"/><use xlink:href="#m" transform="matrix(1,0,0,1,210,189) translate(60.20616319444444 21.52777777777778)"/><path d="M799.33 614.6c-4.56 0-8.2-3.72-8.2-8.28 0-4.44 3.64-8.16 8.2-8.16 4.56 0 8.18 3.72 8.18 8.16 0 4.56-3.6 8.28-8.17 8.28m-65.66-92.76c-4.56 0-8.18-3.72-8.18-8.16 0-4.56 3.6-8.28 8.17-8.28 4.56 0 8.2 3.72 8.2 8.28 0 4.44-3.64 8.16-8.2 8.16m65.66 30c4.56 0 8.18 3.6 8.18 8.16 0 4.56-3.6 8.16-8.17 8.16-4.56 0-8.2-3.6-8.2-8.16 0-4.56 3.64-8.16 8.2-8.16m0 40.92c-6.6 0-12.1 4.68-13.4 10.92H772c-1.87 0-2.8-.96-2.8-2.64v-38.28h16.74c1.3 6.24 6.8 10.92 13.4 10.92 7.52 0 13.66-6.12 13.66-13.68s-6.14-13.68-13.67-13.68c-6.6 0-12.1 4.8-13.4 10.92H769.2v-38.28c0-4.8-3.35-8.04-8.2-8.04h-13.94c-1.3-6.24-6.8-10.92-13.4-10.92-7.52 0-13.66 6.12-13.66 13.68 0 7.44 6.14 13.56 13.67 13.56 6.6 0 12.1-4.68 13.4-10.92H761c1.87 0 2.8.84 2.8 2.64v82.08c0 4.8 3.35 8.04 8.2 8.04h13.94c1.3 6.24 6.8 10.92 13.4 10.92 7.52 0 13.66-6.12 13.66-13.68 0-7.44-6.14-13.56-13.67-13.56" stroke="#000" stroke-opacity="0" fill="#232f3e"/><use xlink:href="#n" transform="matrix(1,0,0,1,690,629) translate(29.66840277777778 21.52777777777778)"/><use xlink:href="#o" transform="matrix(1,0,0,1,690,629) translate(23.21223958333333 53.79340277777778)"/><path d="M1042.33 614.6c-4.56 0-8.18-3.72-8.18-8.28 0-4.44 3.62-8.16 8.18-8.16s8.18 3.72 8.18 8.16c0 4.56-3.6 8.28-8.17 8.28m-65.66-92.76c-4.56 0-8.18-3.72-8.18-8.16 0-4.56 3.6-8.28 8.17-8.28 4.56 0 8.2 3.72 8.2 8.28 0 4.44-3.64 8.16-8.2 8.16m65.66 30c4.56 0 8.18 3.6 8.18 8.16 0 4.56-3.6 8.16-8.17 8.16-4.56 0-8.18-3.6-8.18-8.16 0-4.56 3.62-8.16 8.18-8.16m0 40.92c-6.6 0-12.1 4.68-13.4 10.92H1015c-1.87 0-2.8-.96-2.8-2.64v-38.28h16.74c1.3 6.24 6.8 10.92 13.4 10.92 7.52 0 13.66-6.12 13.66-13.68s-6.14-13.68-13.67-13.68c-6.6 0-12.1 4.8-13.4 10.92h-16.73v-38.28c0-4.8-3.35-8.04-8.2-8.04h-13.94c-1.3-6.24-6.8-10.92-13.4-10.92-7.52 0-13.66 6.12-13.66 13.68 0 7.44 6.14 13.56 13.67 13.56 6.6 0 12.1-4.68 13.4-10.92H1004c1.87 0 2.8.84 2.8 2.64v82.08c0 4.8 3.35 8.04 8.2 8.04h13.94c1.3 6.24 6.8 10.92 13.4 10.92 7.52 0 13.66-6.12 13.66-13.68 0-7.44-6.14-13.56-13.67-13.56" stroke="#000" stroke-opacity="0" fill="#232f3e"/><use xlink:href="#p" transform="matrix(1,0,0,1,933,629) translate(30.94878472222223 21.52777777777778)"/><use xlink:href="#o" transform="matrix(1,0,0,1,933,629) translate(23.21223958333333 53.79340277777778)"/><path d="M821.5 169.64h-48.96l-.83.07-.75.2-.73.3-.67.4-.6.52-.5.6-.43.67-.3.72-.18.76-.06.83V499h-1.96V174.63l.1-1.06.24-1.06.42-1 .58-.94.7-.83.84-.7.93-.58 1-.42 1.08-.25 1.06-.1h49.04z" stroke="#3a414a" stroke-width=".05" fill="#3a414a"/><path d="M767.48 503h-1.96v-4.03h1.96z" fill="#3a414a"/><path stroke="#3a414a" stroke-width=".05" fill="#3a414a"/><path d="M836.76 168.67l-14.26 4.63v-9.27z" fill="#3a414a"/><path d="M839.92 168.67l-18.4 5.97V162.7zm-16.45 3.3l10.14-3.3-10.13-3.3z" stroke="#3a414a" stroke-width=".05" fill="#3a414a"/><path d="M780 466a6 6 0 0 1 6-6h192.62a6 6 0 0 1 6 6v19.52a6 6 0 0 1-6 6H786a6 6 0 0 1-6-6z" fill="none"/><use xlink:href="#q" transform="matrix(1,0,0,1,785,465) translate(0 17.46701388888889)"/><use xlink:href="#r" transform="matrix(1,0,0,1,785,465) translate(60.295138888888886 17.46701388888889)"/><use xlink:href="#s" transform="matrix(1,0,0,1,785,465) translate(128.38541666666666 17.46701388888889)"/><path d="M1311.15 216a6 6 0 0 1 6-6h125.7a6 6 0 0 1 6 6v24.9a6 6 0 0 1-6 6h-125.7a6 6 0 0 1-6-6z" fill="none"/><use xlink:href="#t" transform="matrix(1,0,0,1,1316.1495138888888,214.99999999999994) translate(0 21.58376736111111)"/><path d="M351 120h470.5" stroke="#3a414a" stroke-width="2" fill="none"/><path d="M351.03 120.97H347v-1.94h4.03z" stroke="#3a414a" stroke-width=".05" fill="#3a414a"/><path d="M836.76 120l-14.26 4.64v-9.28z" stroke="#3a414a" stroke-width="2" fill="#3a414a"/><path d="M1080 60h120v120h-120V60z" stroke="#000" stroke-opacity="0" fill="#ed7100"/><path d="M1120.5 139.5H1158V102h-37.47v37.47zM1161 102h5.96v2.94H1161V111h5.96v3.04H1161v4.45h5.96v3H1161v5.98h5.96v3.02H1161v5.96h5.96v3.03H1161v.24c0 1.5-1.26 2.77-2.77 2.77h-.25v5.98h-2.94v-5.97H1149v5.98h-3.04v-5.97h-4.45v5.98h-3v-5.97h-5.98v5.98h-3.02v-5.97h-5.96v5.98h-3.03v-5.97h-.24c-1.5 0-2.77-1.25-2.77-2.76v-.25h-4.46v-3.04h4.45v-5.96h-4.46v-3.02h4.45v-5.97h-4.46v-3h4.45v-4.46h-4.46V111h4.45v-6.04h-4.46v-2.94h4.45v-.25c0-1.5 1.25-2.77 2.76-2.77h.25v-5.96h3.04V99h5.96v-5.96h3.02V99h5.97v-5.96h3V99h4.46v-5.96h3.03V99h6.04v-5.96h2.94V99h.25c1.5 0 2.77 1.26 2.77 2.77v.25zm-19.5 56.8c0 .07-.07.16-.16.16h-40.15c-.1 0-.18-.1-.18-.17v-40.14c0-.1.1-.17.17-.17h8.8v-3.04h-8.8c-1.77 0-3.2 1.43-3.2 3.2v40.15c0 1.77 1.43 3.2 3.2 3.2h40.14c1.77 0 3.2-1.43 3.2-3.2v-7.3h-3.03v7.3zm40.5-77.63v40.14c0 1.77-1.43 3.2-3.2 3.2h-8.8v-3.03h8.8c.1 0 .18-.07.18-.16V81.2c0-.1-.1-.18-.17-.18h-40.14c-.1 0-.17.1-.17.17V90h-3.04v-8.8c0-1.77 1.43-3.2 3.2-3.2h40.15c1.77 0 3.2 1.43 3.2 3.2z" stroke="#000" stroke-opacity="0" fill="#fff"/><use xlink:href="#f" transform="matrix(1,0,0,1,1050,189) translate(22.465277777777786 21.52777777777778)"/><use xlink:href="#j" transform="matrix(1,0,0,1,1050,189) translate(114.3923611111111 21.52777777777778)"/><path d="M1200.5 120h103.12" stroke="#3a414a" fill="none"/><path d="M1200.5 120.47h-.5v-.94h.5z" stroke="#3a414a" stroke-width=".05" fill="#3a414a"/><path d="M1318.38 120l-14.26 4.64v-9.28z" stroke="#3a414a" fill="#3a414a"/><path d="M1079.5 120H976.38" stroke="#3a414a" fill="none"/><path d="M1080 120.47h-.5v-.94h.5z" stroke="#3a414a" stroke-width=".05" fill="#3a414a"/><path d="M961.62 120l14.26-4.64v9.28z" stroke="#3a414a" fill="#3a414a"/><path d="M974.47 120h89.15M974.48 120h-.5" stroke="#3a414a" fill="none"/><path d="M1078.38 120l-14.26 4.64v-9.28z" stroke="#3a414a" fill="#3a414a"/><path d="M1319.5 120h-103.12" stroke="#3a414a" fill="none"/><path d="M1320 120.47h-.5v-.94h.5z" stroke="#3a414a" stroke-width=".05" fill="#3a414a"/><path d="M1201.62 120l14.26-4.64v9.28z" stroke="#3a414a" fill="#3a414a"/><path d="M1093.5 216a6 6 0 0 1 6-6h81a6 6 0 0 1 6 6v24.9a6 6 0 0 1-6 6h-81a6 6 0 0 1-6-6z" fill="none"/><g><use xlink:href="#u" transform="matrix(1,0,0,1,1093.5,209.99999999999994) translate(0.9487847222222285 26.58376736111111)"/></g><path d="M1061.5 169.47h-45.96l-.83.06-.75.18-.73.32-.67.4-.6.52-.5.6-.43.67-.3.74-.18.77-.06.83V499h-1.96V174.45l.1-1.05.24-1.07.42-1 .58-.94.7-.84.84-.72.93-.57 1-.42 1.08-.25 1.06-.1h46.04z" stroke="#3a414a" stroke-width=".05" fill="#3a414a"/><path d="M1010.48 503h-1.96v-4.03h1.96z" fill="#3a414a"/><path stroke="#3a414a" stroke-width=".05" fill="#3a414a"/><path d="M1076.76 168.5l-14.26 4.63v-9.28z" fill="#3a414a"/><path d="M1079.92 168.5l-18.4 5.97V162.5zm-16.45 3.28l10.14-3.3-10.13-3.28z" stroke="#3a414a" stroke-width=".05" fill="#3a414a"/><defs><path d="M600 0L52-1490h200c166 485 304 806 458 1336 156-533 285-846 449-1336h202L819 0H600" id="v"/><path d="M158 0v-1118h180V0H158zm91-1301c-68 0-125-53-125-119s57-119 125-119c69 0 126 53 126 119s-57 119-126 119" id="w"/><path d="M158 0v-1118h174v172h12c41-113 157-188 290-188 26 0 70 2 91 3v181c-11-2-60-10-108-10-161 0-279 109-279 260V0H158" id="x"/><path d="M598-1118v154H368v674c0 100 37 144 132 144 23 0 62-6 92-12L629-6c-37 13-88 20-134 20-193 0-307-107-307-290v-688H20v-154h168v-266h180v266h230" id="y"/><path d="M537 14c-226 0-379-139-379-422v-710h180v695c0 172 97 275 253 275 160 0 281-109 281-300v-670h181V0H879v-209C806-46 684 14 537 14" id="z"/><path d="M471 26C259 26 90-98 90-318c0-256 228-303 435-329 202-27 287-16 287-108 0-139-79-219-234-219-161 0-248 86-283 164l-173-57c86-203 278-265 451-265 150 0 419 46 419 395V0H815v-152h-12C765-73 660 26 471 26zm31-159c199 0 310-134 310-271v-155c-30 35-226 55-295 64-131 17-246 59-246 186 0 116 97 176 231 176" id="A"/><path d="M338-1490V0H158v-1490h180" id="B"/><g id="a"><use transform="matrix(0.010850694444444444,0,0,0.010850694444444444,0,0)" xlink:href="#v"/><use transform="matrix(0.010850694444444444,0,0,0.010850694444444444,15.33203125,0)" xlink:href="#w"/><use transform="matrix(0.010850694444444444,0,0,0.010850694444444444,20.713975694444443,0)" xlink:href="#x"/><use transform="matrix(0.010850694444444444,0,0,0.010850694444444444,29.42708333333333,0)" xlink:href="#y"/><use transform="matrix(0.010850694444444444,0,0,0.010850694444444444,36.69704861111111,0)" xlink:href="#z"/><use transform="matrix(0.010850694444444444,0,0,0.010850694444444444,49.83723958333333,0)" xlink:href="#A"/><use transform="matrix(0.010850694444444444,0,0,0.010850694444444444,62.31553819444444,0)" xlink:href="#B"/></g><path d="M158 418v-1536h174v179h20c37-59 106-193 324-193 279 0 474 222 474 576 0 356-194 580-473 580-213 0-288-135-325-197h-14v591H158zm492-555c209 0 317-186 317-421 0-232-105-413-317-413-206 0-314 166-314 413 0 249 111 421 314 421" id="C"/><path d="M481 0L54-1118h197c107 314 236 620 325 951 87-331 217-637 324-951h197L670 0H481" id="D"/><path d="M628 24c-324 0-524-230-524-574 0-343 198-582 503-582 237 0 487 146 487 559v75H286c9 234 145 362 343 362 132 0 231-58 273-172l174 48C1024-91 857 24 628 24zM287-650h624c-17-190-120-322-304-322-192 0-309 151-320 322" id="E"/><g id="b"><use transform="matrix(0.010850694444444444,0,0,0.010850694444444444,0,0)" xlink:href="#C"/><use transform="matrix(0.010850694444444444,0,0,0.010850694444444444,13.606770833333332,0)" xlink:href="#x"/><use transform="matrix(0.010850694444444444,0,0,0.010850694444444444,22.31987847222222,0)" xlink:href="#w"/><use transform="matrix(0.010850694444444444,0,0,0.010850694444444444,27.701822916666664,0)" xlink:href="#D"/><use transform="matrix(0.010850694444444444,0,0,0.010850694444444444,40.08246527777778,0)" xlink:href="#A"/><use transform="matrix(0.010850694444444444,0,0,0.010850694444444444,52.560763888888886,0)" xlink:href="#y"/><use transform="matrix(0.010850694444444444,0,0,0.010850694444444444,59.61371527777778,0)" xlink:href="#E"/></g><path d="M613 24c-304 0-509-231-509-576 0-350 205-580 509-580 216 0 392 114 453 309l-173 49c-33-115-133-197-280-197-223 0-326 196-326 419 0 220 103 415 326 415 150 0 252-85 285-206l172 49C1010-95 832 24 613 24" id="F"/><path d="M613 24c-304 0-509-231-509-576 0-350 205-580 509-580 305 0 511 230 511 580 0 345-206 576-511 576zm0-161c226 0 329-195 329-415 0-222-103-419-329-419-223 0-326 196-326 419 0 220 103 415 326 415" id="G"/><path d="M577 24c-279 0-473-224-473-580 0-354 195-576 474-576 218 0 287 134 324 193h14v-551h180V0H922v-173h-20C865-111 790 24 577 24zm27-161c203 0 314-172 314-421 0-247-108-413-314-413-212 0-317 181-317 413 0 235 108 421 317 421" id="H"/><g id="c"><use transform="matrix(0.010850694444444444,0,0,0.010850694444444444,0,0)" xlink:href="#F"/><use transform="matrix(0.010850694444444444,0,0,0.010850694444444444,12.6953125,0)" xlink:href="#B"/><use transform="matrix(0.010850694444444444,0,0,0.010850694444444444,18.077256944444443,0)" xlink:href="#G"/><use transform="matrix(0.010850694444444444,0,0,0.010850694444444444,31.40190972222222,0)" xlink:href="#z"/><use transform="matrix(0.010850694444444444,0,0,0.010850694444444444,44.54210069444444,0)" xlink:href="#H"/></g><path d="M218-607c0-325 108-727 258-974h175c-155 315-250 682-250 974 0 265 78 531 250 886H476C306-10 218-315 218-607" id="I"/><path d="M180 0v-1490h510c348 0 508 209 508 474 0 266-160 477-507 477H370V0H180zm190-706h312c236 0 327-133 327-310 0-176-91-307-329-307H370v617" id="J"/><path d="M783 20c-382 0-661-292-661-764 0-473 279-766 661-766 302 0 548 182 601 489h-190c-42-204-217-313-411-313-268 0-476 208-476 590 0 381 209 588 476 588 195 0 369-110 411-313h190c-52 303-296 489-601 489" id="K"/><path d="M96 279C273-86 346-350 346-607c0-292-95-659-250-974h175c150 246 258 650 258 974 0 297-91 602-258 886H96" id="L"/><g id="d"><use transform="matrix(0.010850694444444444,0,0,0.010850694444444444,0,0)" xlink:href="#I"/><use transform="matrix(0.010850694444444444,0,0,0.010850694444444444,8.10546875,0)" xlink:href="#v"/><use transform="matrix(0.010850694444444444,0,0,0.010850694444444444,23.4375,0)" xlink:href="#J"/><use transform="matrix(0.010850694444444444,0,0,0.010850694444444444,37.63020833333333,0)" xlink:href="#K"/><use transform="matrix(0.010850694444444444,0,0,0.010850694444444444,53.86284722222221,0)" xlink:href="#L"/></g><path d="M657 26c-323 0-524-166-541-416h195c15 169 171 246 346 246 202 0 356-106 356-265 5-203-294-238-475-293-239-73-380-191-380-389 0-252 224-419 512-419 294 0 499 171 508 396H992c-17-145-151-228-328-228-193 0-321 102-321 242 0 156 175 211 284 241l149 41c160 44 422 134 422 412 0 244-197 432-541 432" id="M"/><path d="M677 24c-213 0-288-135-325-197h-20V0H158v-1490h180v551h14c37-59 106-193 324-193 279 0 474 222 474 576 0 356-194 580-473 580zm-27-161c209 0 317-186 317-421 0-232-105-413-317-413-206 0-314 166-314 413 0 249 111 421 314 421" id="N"/><path d="M338-670V0H158v-1118h173l1 207c72-158 192-221 342-221 226 0 378 139 378 422V0H872v-695c0-172-96-275-252-275-161 0-282 109-282 300" id="O"/><g id="e"><use transform="matrix(0.010850694444444444,0,0,0.010850694444444444,0,0)" xlink:href="#M"/><use transform="matrix(0.010850694444444444,0,0,0.010850694444444444,14.2578125,0)" xlink:href="#z"/><use transform="matrix(0.010850694444444444,0,0,0.010850694444444444,27.39800347222222,0)" xlink:href="#N"/><use transform="matrix(0.010850694444444444,0,0,0.010850694444444444,41.00477430555556,0)" xlink:href="#O"/><use transform="matrix(0.010850694444444444,0,0,0.010850694444444444,54.13411458333333,0)" xlink:href="#E"/><use transform="matrix(0.010850694444444444,0,0,0.010850694444444444,67.08984375,0)" xlink:href="#y"/></g><path d="M52 0l541-1490h220L1361 0h-200l-149-416H398L254 0H52zm404-582h497c-103-290-145-390-251-756-108 377-145 460-246 756" id="P"/><path d="M158 0v-1118h175l1 205c55-151 181-225 313-225 147 0 245 90 285 228 53-141 190-228 352-228 194 0 352 125 352 384V0h-181v-749c0-161-105-225-225-225-151 0-243 103-243 244V0H807v-767c0-124-93-207-219-207-131 0-250 92-250 270V0H158" id="Q"/><path d="M126 0v-134l627-806v-11H146v-167h839v143L376-178v11h629V0H126" id="R"/><g id="f"><use transform="matrix(0.010850694444444444,0,0,0.010850694444444444,0,0)" xlink:href="#P"/><use transform="matrix(0.010850694444444444,0,0,0.010850694444444444,15.33203125,0)" xlink:href="#Q"/><use transform="matrix(0.010850694444444444,0,0,0.010850694444444444,34.79817708333333,0)" xlink:href="#A"/><use transform="matrix(0.010850694444444444,0,0,0.010850694444444444,47.27647569444444,0)" xlink:href="#R"/><use transform="matrix(0.010850694444444444,0,0,0.010850694444444444,59.22309027777778,0)" xlink:href="#G"/><use transform="matrix(0.010850694444444444,0,0,0.010850694444444444,72.54774305555554,0)" xlink:href="#O"/></g><g id="g"><use transform="matrix(0.010850694444444444,0,0,0.010850694444444444,0,0)" xlink:href="#K"/><use transform="matrix(0.010850694444444444,0,0,0.010850694444444444,16.23263888888889,0)" xlink:href="#B"/><use transform="matrix(0.010850694444444444,0,0,0.010850694444444444,21.614583333333336,0)" xlink:href="#G"/><use transform="matrix(0.010850694444444444,0,0,0.010850694444444444,34.939236111111114,0)" xlink:href="#z"/><use transform="matrix(0.010850694444444444,0,0,0.010850694444444444,48.07942708333333,0)" xlink:href="#H"/></g><path d="M180 0v-1490h510c348 0 508 194 508 460 0 198-88 351-276 417L1256 0h-220L726-579c-117 2-238 0-356 1V0H180zm190-747h312c235 0 327-108 327-283 0-177-92-293-329-293H370v576" id="S"/><path d="M611 442c-248 0-391-105-460-228l146-94c47 65 117 165 314 165 178 0 307-82 307-266v-224h-17C863-141 792-18 576-18c-268 0-472-195-472-546 0-346 197-568 476-568 216 0 288 133 326 193h17v-179h175V29c0 289-215 413-487 413zm-5-620c203 0 314-146 314-390 0-237-108-403-314-403-213 0-319 180-319 403 0 230 109 390 319 390" id="T"/><g id="h"><use transform="matrix(0.010850694444444444,0,0,0.010850694444444444,0,0)" xlink:href="#S"/><use transform="matrix(0.010850694444444444,0,0,0.010850694444444444,13.975694444444445,0)" xlink:href="#E"/><use transform="matrix(0.010850694444444444,0,0,0.010850694444444444,26.931423611111104,0)" xlink:href="#T"/><use transform="matrix(0.010850694444444444,0,0,0.010850694444444444,40.55989583333333,0)" xlink:href="#w"/><use transform="matrix(0.010850694444444444,0,0,0.010850694444444444,45.94184027777778,0)" xlink:href="#G"/><use transform="matrix(0.010850694444444444,0,0,0.010850694444444444,59.26649305555555,0)" xlink:href="#O"/></g><path d="M538 24C308 24 148-78 108-271l171-41c32 123 123 178 257 178 156 0 256-77 256-169 0-77-54-128-164-154l-186-44c-203-48-300-148-300-305 0-192 176-326 414-326 230 0 351 112 402 269l-163 42c-31-80-94-158-238-158-133 0-233 69-233 162 0 83 57 129 188 160l169 40c203 48 298 149 298 302 0 196-179 339-441 339" id="U"/><path d="M798-719v166H144v-166h654" id="V"/><path d="M653-1490V0H466v-1314h-10L96-1047v-204l324-239h233" id="W"/><g id="i"><use transform="matrix(0.010850694444444444,0,0,0.010850694444444444,0,0)" xlink:href="#z"/><use transform="matrix(0.010850694444444444,0,0,0.010850694444444444,13.140190972222221,0)" xlink:href="#U"/><use transform="matrix(0.010850694444444444,0,0,0.010850694444444444,24.869791666666664,0)" xlink:href="#V"/><use transform="matrix(0.010850694444444444,0,0,0.010850694444444444,35.09114583333333,0)" xlink:href="#E"/><use transform="matrix(0.010850694444444444,0,0,0.010850694444444444,48.26388888888888,0)" xlink:href="#A"/><use transform="matrix(0.010850694444444444,0,0,0.010850694444444444,60.742187499999986,0)" xlink:href="#U"/><use transform="matrix(0.010850694444444444,0,0,0.010850694444444444,72.47178819444443,0)" xlink:href="#y"/><use transform="matrix(0.010850694444444444,0,0,0.010850694444444444,79.30772569444443,0)" xlink:href="#V"/><use transform="matrix(0.010850694444444444,0,0,0.010850694444444444,89.52907986111111,0)" xlink:href="#W"/></g><path d="M180 0v-1490h908v168H370v486h669v168H370v500h727V0H180" id="X"/><path d="M154 0v-137l495-537c165-179 249-281 249-418 0-156-121-253-280-253-170 0-278 110-278 278H158c0-264 200-443 465-443 266 0 455 183 455 416 0 161-73 288-336 568L416-179v12h687V0H154" id="Y"/><g id="j"><use transform="matrix(0.010850694444444444,0,0,0.010850694444444444,0,0)" xlink:href="#X"/><use transform="matrix(0.010850694444444444,0,0,0.010850694444444444,13.35720486111111,0)" xlink:href="#K"/><use transform="matrix(0.010850694444444444,0,0,0.010850694444444444,29.58984375,0)" xlink:href="#Y"/></g><path d="M645 0H180v-1490h484c435 0 692 280 692 742 0 466-257 748-711 748zM370-168h263c363 0 539-218 539-580 0-358-176-574-521-574H370v1154" id="Z"/><g id="k"><use transform="matrix(0.010850694444444444,0,0,0.010850694444444444,0,0)" xlink:href="#S"/><use transform="matrix(0.010850694444444444,0,0,0.010850694444444444,14.301215277777777,0)" xlink:href="#Z"/><use transform="matrix(0.010850694444444444,0,0,0.010850694444444444,30.338541666666664,0)" xlink:href="#M"/></g><path d="M180 0v-1490h901v168H370v510h643v168H370V0H180" id="aa"/><g id="l"><use transform="matrix(0.010850694444444444,0,0,0.010850694444444444,0,0)" xlink:href="#aa"/><use transform="matrix(0.010850694444444444,0,0,0.010850694444444444,12.467447916666666,0)" xlink:href="#x"/><use transform="matrix(0.010850694444444444,0,0,0.010850694444444444,20.46440972222222,0)" xlink:href="#G"/><use transform="matrix(0.010850694444444444,0,0,0.010850694444444444,33.7890625,0)" xlink:href="#O"/><use transform="matrix(0.010850694444444444,0,0,0.010850694444444444,46.91840277777778,0)" xlink:href="#y"/><use transform="matrix(0.010850694444444444,0,0,0.010850694444444444,53.97135416666667,0)" xlink:href="#E"/><use transform="matrix(0.010850694444444444,0,0,0.010850694444444444,66.92708333333334,0)" xlink:href="#O"/><use transform="matrix(0.010850694444444444,0,0,0.010850694444444444,80.05642361111111,0)" xlink:href="#H"/></g><path d="M763 24c-353 0-583-224-583-531v-983h190v968c0 214 149 370 393 370 243 0 391-156 391-370v-968h190v983c0 307-230 531-581 531" id="ab"/><g id="m"><use transform="matrix(0.010850694444444444,0,0,0.010850694444444444,0,0)" xlink:href="#ab"/><use transform="matrix(0.010850694444444444,0,0,0.010850694444444444,16.536458333333332,0)" xlink:href="#U"/><use transform="matrix(0.010850694444444444,0,0,0.010850694444444444,28.266059027777775,0)" xlink:href="#E"/><use transform="matrix(0.010850694444444444,0,0,0.010850694444444444,41.22178819444444,0)" xlink:href="#x"/></g><g id="n"><use transform="matrix(0.010850694444444444,0,0,0.010850694444444444,0,0)" xlink:href="#aa"/><use transform="matrix(0.010850694444444444,0,0,0.010850694444444444,12.467447916666666,0)" xlink:href="#x"/><use transform="matrix(0.010850694444444444,0,0,0.010850694444444444,20.46440972222222,0)" xlink:href="#G"/><use transform="matrix(0.010850694444444444,0,0,0.010850694444444444,33.7890625,0)" xlink:href="#O"/><use transform="matrix(0.010850694444444444,0,0,0.010850694444444444,46.91840277777778,0)" xlink:href="#y"/><use transform="matrix(0.010850694444444444,0,0,0.010850694444444444,53.97135416666667,0)" xlink:href="#E"/><use transform="matrix(0.010850694444444444,0,0,0.010850694444444444,66.92708333333334,0)" xlink:href="#O"/><use transform="matrix(0.010850694444444444,0,0,0.010850694444444444,80.05642361111111,0)" xlink:href="#H"/></g><path d="M140 405l46-156c120 36 205 19 263-150l32-93L54-1118h197c107 313 237 620 324 950 87-331 219-637 326-950h196L606 167c-68 178-176 259-334 259-64 0-113-12-132-21" id="ac"/><g id="o"><use transform="matrix(0.010850694444444444,0,0,0.010850694444444444,0,0)" xlink:href="#x"/><use transform="matrix(0.010850694444444444,0,0,0.010850694444444444,7.996961805555555,0)" xlink:href="#E"/><use transform="matrix(0.010850694444444444,0,0,0.010850694444444444,20.95269097222222,0)" xlink:href="#C"/><use transform="matrix(0.010850694444444444,0,0,0.010850694444444444,34.55946180555556,0)" xlink:href="#G"/><use transform="matrix(0.010850694444444444,0,0,0.010850694444444444,47.88411458333333,0)" xlink:href="#U"/><use transform="matrix(0.010850694444444444,0,0,0.010850694444444444,59.61371527777778,0)" xlink:href="#w"/><use transform="matrix(0.010850694444444444,0,0,0.010850694444444444,64.99565972222223,0)" xlink:href="#y"/><use transform="matrix(0.010850694444444444,0,0,0.010850694444444444,72.04861111111111,0)" xlink:href="#G"/><use transform="matrix(0.010850694444444444,0,0,0.010850694444444444,85.37326388888889,0)" xlink:href="#x"/><use transform="matrix(0.010850694444444444,0,0,0.010850694444444444,94.0863715277778,0)" xlink:href="#ac"/></g><path d="M180 0v-1490h528c311 0 458 177 458 395 0 191-114 278-244 313v14c139 9 302 137 302 371 0 225-148 397-499 397H180zm190-168h350c232 0 321-102 321-231 0-149-120-277-311-277H370v508zm0-668h328c160 0 286-101 286-255 0-129-87-231-280-231H370v486" id="ad"/><path d="M158 0v-1490h180v865h22l478-493h223L593-638 1096 0H865L456-523 338-412V0H158" id="ae"/><g id="p"><use transform="matrix(0.010850694444444444,0,0,0.010850694444444444,0,0)" xlink:href="#ad"/><use transform="matrix(0.010850694444444444,0,0,0.010850694444444444,14.539930555555555,0)" xlink:href="#A"/><use transform="matrix(0.010850694444444444,0,0,0.010850694444444444,27.018229166666664,0)" xlink:href="#F"/><use transform="matrix(0.010850694444444444,0,0,0.010850694444444444,39.713541666666664,0)" xlink:href="#ae"/><use transform="matrix(0.010850694444444444,0,0,0.010850694444444444,51.41059027777778,0)" xlink:href="#E"/><use transform="matrix(0.010850694444444444,0,0,0.010850694444444444,64.36631944444444,0)" xlink:href="#O"/><use transform="matrix(0.010850694444444444,0,0,0.010850694444444444,77.49565972222221,0)" xlink:href="#H"/></g><path d="M789 20c-398 0-667-293-667-764 0-473 273-766 655-766 315 0 558 198 612 487h-196c-61-191-204-311-415-311-262 0-471 207-471 590 0 380 208 588 482 588 249 0 420-165 425-427H828v-166h572v163c0 370-256 606-611 606" id="af"/><path d="M338-670V0H158v-1490h180v566c73-149 190-208 336-208 226 0 379 139 379 422V0H872v-695c0-172-96-275-252-275-161 0-282 109-282 300" id="ag"/><g id="q"><use transform="matrix(0.008680555555555556,0,0,0.008680555555555556,0,0)" xlink:href="#af"/><use transform="matrix(0.008680555555555556,0,0,0.008680555555555556,13.26388888888889,0)" xlink:href="#w"/><use transform="matrix(0.008680555555555556,0,0,0.008680555555555556,17.569444444444443,0)" xlink:href="#y"/><use transform="matrix(0.008680555555555556,0,0,0.008680555555555556,23.385416666666664,0)" xlink:href="#ag"/><use transform="matrix(0.008680555555555556,0,0,0.008680555555555556,33.89756944444444,0)" xlink:href="#z"/><use transform="matrix(0.008680555555555556,0,0,0.008680555555555556,44.40972222222222,0)" xlink:href="#N"/></g><g id="r"><use transform="matrix(0.008680555555555556,0,0,0.008680555555555556,0,0)" xlink:href="#P"/><use transform="matrix(0.008680555555555556,0,0,0.008680555555555556,12.265625,0)" xlink:href="#F"/><use transform="matrix(0.008680555555555556,0,0,0.008680555555555556,22.421875,0)" xlink:href="#y"/><use transform="matrix(0.008680555555555556,0,0,0.008680555555555556,28.237847222222218,0)" xlink:href="#w"/><use transform="matrix(0.008680555555555556,0,0,0.008680555555555556,32.54340277777778,0)" xlink:href="#G"/><use transform="matrix(0.008680555555555556,0,0,0.008680555555555556,43.203125,0)" xlink:href="#O"/><use transform="matrix(0.008680555555555556,0,0,0.008680555555555556,53.70659722222222,0)" xlink:href="#U"/></g><g id="s"><use transform="matrix(0.008680555555555556,0,0,0.008680555555555556,0,0)" xlink:href="#Z"/><use transform="matrix(0.008680555555555556,0,0,0.008680555555555556,12.829861111111112,0)" xlink:href="#E"/><use transform="matrix(0.008680555555555556,0,0,0.008680555555555556,23.194444444444446,0)" xlink:href="#C"/><use transform="matrix(0.008680555555555556,0,0,0.008680555555555556,34.079861111111114,0)" xlink:href="#B"/><use transform="matrix(0.008680555555555556,0,0,0.008680555555555556,38.38541666666667,0)" xlink:href="#G"/><use transform="matrix(0.008680555555555556,0,0,0.008680555555555556,48.69791666666667,0)" xlink:href="#ac"/></g><path d="M1096 418H916v-591h-14C865-111 790 24 577 24c-279 0-473-224-473-580 0-354 195-576 474-576 218 0 287 134 324 193h20v-179h174V418zM604-137c203 0 314-172 314-421 0-247-108-413-314-413-212 0-317 181-317 413 0 235 108 421 317 421" id="ah"/><g id="t"><use transform="matrix(0.010850694444444444,0,0,0.010850694444444444,0,0)" xlink:href="#I"/><use transform="matrix(0.010850694444444444,0,0,0.010850694444444444,8.10546875,0)" xlink:href="#J"/><use transform="matrix(0.010850694444444444,0,0,0.010850694444444444,22.178819444444443,0)" xlink:href="#G"/><use transform="matrix(0.010850694444444444,0,0,0.010850694444444444,35.50347222222222,0)" xlink:href="#U"/><use transform="matrix(0.010850694444444444,0,0,0.010850694444444444,47.233072916666664,0)" xlink:href="#y"/><use transform="matrix(0.010850694444444444,0,0,0.010850694444444444,54.28602430555556,0)" xlink:href="#T"/><use transform="matrix(0.010850694444444444,0,0,0.010850694444444444,67.91449652777777,0)" xlink:href="#x"/><use transform="matrix(0.010850694444444444,0,0,0.010850694444444444,75.91145833333333,0)" xlink:href="#E"/><use transform="matrix(0.010850694444444444,0,0,0.010850694444444444,88.8671875,0)" xlink:href="#U"/><use transform="matrix(0.010850694444444444,0,0,0.010850694444444444,100.59678819444444,0)" xlink:href="#ah"/><use transform="matrix(0.010850694444444444,0,0,0.010850694444444444,114.20355902777777,0)" xlink:href="#B"/><use transform="matrix(0.010850694444444444,0,0,0.010850694444444444,119.58550347222221,0)" xlink:href="#L"/></g><g id="u"><use transform="matrix(0.010850694444444444,0,0,0.010850694444444444,0,0)" xlink:href="#ad"/><use transform="matrix(0.010850694444444444,0,0,0.010850694444444444,14.539930555555555,0)" xlink:href="#A"/><use transform="matrix(0.010850694444444444,0,0,0.010850694444444444,27.018229166666664,0)" xlink:href="#F"/><use transform="matrix(0.010850694444444444,0,0,0.010850694444444444,39.713541666666664,0)" xlink:href="#ae"/><use transform="matrix(0.010850694444444444,0,0,0.010850694444444444,51.41059027777778,0)" xlink:href="#E"/><use transform="matrix(0.010850694444444444,0,0,0.010850694444444444,64.36631944444444,0)" xlink:href="#O"/><use transform="matrix(0.010850694444444444,0,0,0.010850694444444444,77.49565972222221,0)" xlink:href="#H"/></g></defs></g></svg>